<mxfile host="app.diagrams.net" modified="2022-06-28T09:49:45.620Z" agent="5.0 (Windows NT 10.0; Win64; x64) AppleWebKit/537.36 (KHTML, like Gecko) Chrome/101.0.4951.67 Safari/537.36" etag="B5aHtLTgWH5eRRRMique" version="20.0.3" type="github">
  <diagram id="wT0n45bVvKNopi6xtDpR" name="Page-1">
    <mxGraphModel dx="1038" dy="547" grid="1" gridSize="10" guides="1" tooltips="1" connect="1" arrows="1" fold="1" page="1" pageScale="1" pageWidth="827" pageHeight="1169" math="0" shadow="0">
      <root>
        <mxCell id="0" />
        <mxCell id="1" parent="0" />
        <mxCell id="3qDr2YBaETSvCtJJ07WK-7" value="" style="edgeStyle=orthogonalEdgeStyle;rounded=0;orthogonalLoop=1;jettySize=auto;html=1;" edge="1" parent="1" source="3qDr2YBaETSvCtJJ07WK-1" target="3qDr2YBaETSvCtJJ07WK-2">
          <mxGeometry relative="1" as="geometry" />
        </mxCell>
        <mxCell id="3qDr2YBaETSvCtJJ07WK-1" value="互联网" style="ellipse;shape=cloud;whiteSpace=wrap;html=1;" vertex="1" parent="1">
          <mxGeometry x="120" y="120" width="120" height="80" as="geometry" />
        </mxCell>
        <mxCell id="3qDr2YBaETSvCtJJ07WK-10" value="" style="edgeStyle=orthogonalEdgeStyle;rounded=0;orthogonalLoop=1;jettySize=auto;html=1;" edge="1" parent="1" source="3qDr2YBaETSvCtJJ07WK-2" target="3qDr2YBaETSvCtJJ07WK-9">
          <mxGeometry relative="1" as="geometry" />
        </mxCell>
        <mxCell id="3qDr2YBaETSvCtJJ07WK-13" value="" style="edgeStyle=orthogonalEdgeStyle;rounded=0;orthogonalLoop=1;jettySize=auto;html=1;" edge="1" parent="1" source="3qDr2YBaETSvCtJJ07WK-2" target="3qDr2YBaETSvCtJJ07WK-12">
          <mxGeometry relative="1" as="geometry" />
        </mxCell>
        <mxCell id="3qDr2YBaETSvCtJJ07WK-2" value="舆情信息采集" style="rounded=1;whiteSpace=wrap;html=1;" vertex="1" parent="1">
          <mxGeometry x="320" y="130" width="120" height="60" as="geometry" />
        </mxCell>
        <mxCell id="3qDr2YBaETSvCtJJ07WK-14" value="" style="edgeStyle=orthogonalEdgeStyle;rounded=0;orthogonalLoop=1;jettySize=auto;html=1;" edge="1" parent="1" source="3qDr2YBaETSvCtJJ07WK-3" target="3qDr2YBaETSvCtJJ07WK-5">
          <mxGeometry relative="1" as="geometry" />
        </mxCell>
        <mxCell id="3qDr2YBaETSvCtJJ07WK-3" value="数据增强" style="rounded=1;whiteSpace=wrap;html=1;" vertex="1" parent="1">
          <mxGeometry x="320" y="330" width="120" height="60" as="geometry" />
        </mxCell>
        <mxCell id="3qDr2YBaETSvCtJJ07WK-5" value="舆情等级预测" style="whiteSpace=wrap;html=1;rounded=1;" vertex="1" parent="1">
          <mxGeometry x="320" y="430" width="120" height="60" as="geometry" />
        </mxCell>
        <mxCell id="3qDr2YBaETSvCtJJ07WK-8" value="爬虫" style="text;html=1;align=center;verticalAlign=middle;resizable=0;points=[];autosize=1;strokeColor=none;fillColor=none;" vertex="1" parent="1">
          <mxGeometry x="250" y="120" width="50" height="30" as="geometry" />
        </mxCell>
        <mxCell id="3qDr2YBaETSvCtJJ07WK-11" value="" style="edgeStyle=orthogonalEdgeStyle;rounded=0;orthogonalLoop=1;jettySize=auto;html=1;" edge="1" parent="1" source="3qDr2YBaETSvCtJJ07WK-9" target="3qDr2YBaETSvCtJJ07WK-3">
          <mxGeometry relative="1" as="geometry" />
        </mxCell>
        <mxCell id="3qDr2YBaETSvCtJJ07WK-9" value="数据预处理" style="whiteSpace=wrap;html=1;rounded=1;" vertex="1" parent="1">
          <mxGeometry x="320" y="230" width="120" height="60" as="geometry" />
        </mxCell>
        <mxCell id="3qDr2YBaETSvCtJJ07WK-12" value="数据标注" style="whiteSpace=wrap;html=1;rounded=1;" vertex="1" parent="1">
          <mxGeometry x="520" y="130" width="120" height="60" as="geometry" />
        </mxCell>
        <mxCell id="3qDr2YBaETSvCtJJ07WK-15" value="翻译软件" style="rounded=1;whiteSpace=wrap;html=1;" vertex="1" parent="1">
          <mxGeometry x="280" y="670" width="60" height="60" as="geometry" />
        </mxCell>
        <mxCell id="3qDr2YBaETSvCtJJ07WK-16" value="&lt;i&gt;title&lt;/i&gt;" style="rounded=0;whiteSpace=wrap;html=1;" vertex="1" parent="1">
          <mxGeometry x="130" y="675" width="70" height="30" as="geometry" />
        </mxCell>
        <mxCell id="3qDr2YBaETSvCtJJ07WK-17" value="&lt;i&gt;content&lt;/i&gt;" style="rounded=0;whiteSpace=wrap;html=1;" vertex="1" parent="1">
          <mxGeometry x="130" y="705" width="70" height="30" as="geometry" />
        </mxCell>
        <mxCell id="3qDr2YBaETSvCtJJ07WK-18" value="舆情&lt;i&gt;d&lt;/i&gt;" style="text;html=1;strokeColor=none;fillColor=none;align=center;verticalAlign=middle;whiteSpace=wrap;rounded=0;" vertex="1" parent="1">
          <mxGeometry x="135" y="645" width="60" height="30" as="geometry" />
        </mxCell>
        <mxCell id="3qDr2YBaETSvCtJJ07WK-21" value="&lt;i&gt;title&#39;&lt;/i&gt;" style="rounded=0;whiteSpace=wrap;html=1;" vertex="1" parent="1">
          <mxGeometry x="420" y="674" width="70" height="30" as="geometry" />
        </mxCell>
        <mxCell id="3qDr2YBaETSvCtJJ07WK-22" value="&lt;i&gt;content&#39;&lt;/i&gt;" style="rounded=0;whiteSpace=wrap;html=1;" vertex="1" parent="1">
          <mxGeometry x="420" y="704" width="70" height="30" as="geometry" />
        </mxCell>
        <mxCell id="3qDr2YBaETSvCtJJ07WK-23" value="舆情&lt;i&gt;d&#39;&lt;/i&gt;" style="text;html=1;strokeColor=none;fillColor=none;align=center;verticalAlign=middle;whiteSpace=wrap;rounded=0;" vertex="1" parent="1">
          <mxGeometry x="425" y="644" width="60" height="30" as="geometry" />
        </mxCell>
        <mxCell id="3qDr2YBaETSvCtJJ07WK-25" value="" style="rounded=0;whiteSpace=wrap;html=1;fillColor=none;" vertex="1" parent="1">
          <mxGeometry x="120" y="645" width="90" height="100" as="geometry" />
        </mxCell>
        <mxCell id="3qDr2YBaETSvCtJJ07WK-26" value="" style="rounded=0;whiteSpace=wrap;html=1;fillColor=none;" vertex="1" parent="1">
          <mxGeometry x="410" y="644" width="90" height="100" as="geometry" />
        </mxCell>
        <mxCell id="3qDr2YBaETSvCtJJ07WK-28" value="" style="endArrow=classic;html=1;rounded=0;exitX=1;exitY=0.684;exitDx=0;exitDy=0;exitPerimeter=0;" edge="1" parent="1">
          <mxGeometry width="50" height="50" relative="1" as="geometry">
            <mxPoint x="210" y="686.4000000000001" as="sourcePoint" />
            <mxPoint x="280" y="686" as="targetPoint" />
          </mxGeometry>
        </mxCell>
        <mxCell id="3qDr2YBaETSvCtJJ07WK-29" value="" style="endArrow=classic;html=1;rounded=0;exitX=1;exitY=0.684;exitDx=0;exitDy=0;exitPerimeter=0;" edge="1" parent="1">
          <mxGeometry width="50" height="50" relative="1" as="geometry">
            <mxPoint x="340" y="685.4000000000001" as="sourcePoint" />
            <mxPoint x="410" y="685" as="targetPoint" />
          </mxGeometry>
        </mxCell>
        <mxCell id="3qDr2YBaETSvCtJJ07WK-30" value="" style="endArrow=classic;html=1;rounded=0;exitX=0;exitY=0.25;exitDx=0;exitDy=0;entryX=1.018;entryY=0.412;entryDx=0;entryDy=0;entryPerimeter=0;" edge="1" parent="1">
          <mxGeometry width="50" height="50" relative="1" as="geometry">
            <mxPoint x="279.38" y="712" as="sourcePoint" />
            <mxPoint x="210.9999999999999" y="713.2" as="targetPoint" />
          </mxGeometry>
        </mxCell>
        <mxCell id="3qDr2YBaETSvCtJJ07WK-31" value="" style="endArrow=classic;html=1;rounded=0;exitX=0;exitY=0.25;exitDx=0;exitDy=0;entryX=1.018;entryY=0.412;entryDx=0;entryDy=0;entryPerimeter=0;" edge="1" parent="1">
          <mxGeometry width="50" height="50" relative="1" as="geometry">
            <mxPoint x="408.76" y="712" as="sourcePoint" />
            <mxPoint x="340.3799999999999" y="713.2" as="targetPoint" />
          </mxGeometry>
        </mxCell>
      </root>
    </mxGraphModel>
  </diagram>
</mxfile>
